<svg width="512" height="512" viewBox="0 0 512 512" fill="none" xmlns="http://www.w3.org/2000/svg">
<rect width="512" height="512" fill="#E0E0E0"/>
<path d="M188.469 405C167.158 405 147.587 401.845 129.756 395.535C112.143 389.225 97.8995 379.978 87.0268 367.793C76.1542 355.391 70.1742 340.16 69.087 322.101C68.6521 314.703 69.8481 306.544 72.675 297.623C75.5018 288.702 79.416 279.89 84.4174 271.187C89.6363 262.266 95.7249 254.324 102.683 247.362C109.859 240.181 117.47 234.742 125.516 231.043C126.168 230.608 127.147 230.281 128.452 230.064C129.974 229.846 131.061 229.737 131.713 229.737C133.018 229.737 133.67 230.064 133.67 230.716C133.67 231.804 132.04 233.545 128.778 235.938C119.645 243.119 112.143 251.387 106.271 260.743C100.183 270.099 95.6162 280.108 92.5719 290.769C89.5275 301.431 88.0054 312.201 88.0054 323.08C88.0054 335.918 90.7235 347.014 96.1598 356.37C101.814 365.509 109.316 373.015 118.666 378.89C128.017 384.982 138.672 389.443 150.632 392.271C162.592 395.1 175.095 396.514 188.142 396.514C202.712 396.514 217.064 394.882 231.198 391.619C245.55 388.355 258.597 383.677 270.339 377.585C288.388 368.011 302.631 356.153 313.069 342.01C323.724 327.867 329.052 313.833 329.052 299.908C329.052 292.51 327.421 285.438 324.159 278.693C321.115 271.948 316.113 265.856 309.155 260.416C303.936 256.282 297.521 252.366 289.91 248.667C282.517 244.968 274.58 241.378 266.099 237.897C257.836 234.415 249.681 230.934 241.636 227.453C233.59 223.754 226.523 219.837 220.434 215.703C211.736 209.829 205.321 203.519 201.189 196.774C197.275 190.029 195.318 183.284 195.318 176.538C195.318 168.488 197.602 160.655 202.168 153.04C206.952 145.424 213.367 138.57 221.413 132.478C229.676 126.168 238.918 121.273 249.138 117.791C258.053 114.745 267.73 112.352 278.168 110.611C288.823 108.87 299.261 108 309.481 108C317.962 108 326.007 108.653 333.618 109.958C341.446 111.046 348.296 113.113 354.167 116.159C361.561 119.641 367.215 124.319 371.129 130.193C375.043 135.851 377 141.834 377 148.144C377 156.847 373.086 164.463 365.258 170.99C362.431 173.166 359.278 175.233 355.798 177.191C352.319 178.932 348.188 180.455 343.404 181.76C342.534 181.978 341.555 182.087 340.468 182.087C337.859 182.087 336.554 181.325 336.554 179.802C336.554 178.932 337.206 178.062 338.511 177.191C340.033 176.103 342.208 175.451 345.034 175.233C351.558 174.363 356.451 171.86 359.712 167.726C363.192 163.592 364.931 158.805 364.931 153.366C364.931 147.709 362.974 142.16 359.06 136.721C355.363 131.064 349.601 126.386 341.773 122.687C333.944 118.77 323.942 116.812 311.764 116.812C304.806 116.812 297.086 117.574 288.605 119.097C280.342 120.62 271.318 123.122 261.533 126.603C249.573 130.737 239.57 136.83 231.524 144.88C223.696 152.931 219.782 161.525 219.782 170.664C219.782 176.321 221.63 182.087 225.327 187.962C229.241 193.619 235.438 199.058 243.919 204.28C251.095 208.632 259.249 212.984 268.382 217.335C277.515 221.469 286.757 225.712 296.108 230.064C305.458 234.198 313.939 238.658 321.55 243.445C333.509 250.843 342.099 258.785 347.318 267.27C352.537 275.756 355.146 284.459 355.146 293.38C355.146 303.824 351.993 314.377 345.687 325.038C339.598 335.482 331.552 345.382 321.55 354.738C311.547 363.877 300.565 372.036 288.605 379.216C274.688 387.485 258.923 393.795 241.31 398.146C223.913 402.715 206.3 405 188.469 405Z" fill="black"/>
</svg>
